<svg width="12" height="9" viewBox="0 0 12 9" fill="none" xmlns="http://www.w3.org/2000/svg">
<path d="M11.3548 0.860855C11.288 0.799285 11.2087 0.750438 11.1213 0.71711C11.034 0.683781 10.9403 0.666626 10.8458 0.666626C10.7512 0.666626 10.6576 0.683781 10.5702 0.71711C10.4829 0.750438 10.4035 0.799285 10.3367 0.860855L4.21365 6.49956L1.65755 4.14844C1.52254 4.02425 1.33943 3.95449 1.1485 3.95449C0.957566 3.95449 0.774454 4.02425 0.639445 4.14844C0.504436 4.27262 0.428589 4.44105 0.428589 4.61667C0.428589 4.70363 0.44721 4.78973 0.483389 4.87007C0.519567 4.95041 0.572596 5.02341 0.639445 5.0849L3.70098 7.90093C3.98259 8.15995 4.43748 8.15995 4.71909 7.90093L11.3548 1.79732C11.6437 1.5383 11.6437 1.11988 11.3548 0.860855Z" fill="#75E631"/>
</svg>
