<svg width="15" height="15" viewBox="0 0 15 15" fill="none" xmlns="http://www.w3.org/2000/svg">
<path d="M0.466492 10.1087C1.52619 12.9647 4.27526 15 7.5 15C10.7247 15 13.4738 12.9647 14.5335 10.1087L7.5 9.45654L0.466492 10.1087Z" fill="#FFDA44"/>
<path d="M7.5 0C4.27526 0 1.52619 2.03531 0.466492 4.89132L7.5 5.54347L14.5335 4.89129C13.4738 2.03531 10.7247 0 7.5 0Z" fill="black"/>
<path d="M0.466494 4.89136C0.165029 5.70385 0 6.58264 0 7.50004C0 8.41744 0.165029 9.29623 0.466494 10.1087H14.5335C14.835 9.29623 15 8.41744 15 7.50004C15 6.58264 14.835 5.70385 14.5335 4.89136H0.466494Z" fill="#D80027"/>
</svg>
