<svg width="15" height="15" viewBox="0 0 15 15" fill="none" xmlns="http://www.w3.org/2000/svg">
<g clip-path="url(#clip0_2_251)">
<path d="M7.5 15C11.6421 15 15 11.6421 15 7.5C15 3.35786 11.6421 0 7.5 0C3.35786 0 0 3.35786 0 7.5C0 11.6421 3.35786 15 7.5 15Z" fill="#F0F0F0"/>
<path d="M14.9365 6.5217H5.8696H5.86957V0.178223C5.17647 0.331914 4.51937 0.581026 3.91304 0.911875V6.52164V6.52167H0.0634863C0.0217383 6.84192 0 7.1684 0 7.49995C0 7.83151 0.0217383 8.15799 0.0634863 8.47821H3.91301H3.91304V14.088C4.51937 14.4188 5.17647 14.668 5.86957 14.8217V8.47829V8.47824H14.9365C14.9782 8.15799 15 7.83151 15 7.49995C15 7.1684 14.9782 6.84192 14.9365 6.5217Z" fill="#0052B4"/>
</g>
<defs>
<clipPath id="clip0_2_251">
<rect width="15" height="15" fill="white"/>
</clipPath>
</defs>
</svg>
