<svg width="25" height="29" viewBox="0 0 25 29" fill="none" xmlns="http://www.w3.org/2000/svg">
<path fill-rule="evenodd" clip-rule="evenodd" d="M20.0937 8.16951V10.2778C22.462 11.0171 24.1875 13.1609 24.1875 15.7216V22.5098C24.1875 25.6798 21.5594 28.25 18.3193 28.25H6.6821C3.44062 28.25 0.8125 25.6798 0.8125 22.5098V15.7216C0.8125 13.1609 2.53943 11.0171 4.90627 10.2778V8.16951C4.92024 4.07033 8.31541 0.75 12.479 0.75C16.6986 0.75 20.0937 4.07033 20.0937 8.16951ZM12.507 3.14119C15.3433 3.14119 17.6486 5.39573 17.6486 8.16951V9.98134H7.35135V8.14218C7.36532 5.38207 9.67069 3.14119 12.507 3.14119ZM13.7225 20.6255C13.7225 21.2951 13.1776 21.828 12.493 21.828C11.8224 21.828 11.2775 21.2951 11.2775 20.6255V17.5921C11.2775 16.9363 11.8224 16.4034 12.493 16.4034C13.1776 16.4034 13.7225 16.9363 13.7225 17.5921V20.6255Z" fill="#262626"/>
</svg>
