<svg width="15" height="16" viewBox="0 0 15 16" fill="none" xmlns="http://www.w3.org/2000/svg">
<g clip-path="url(#clip0_2_238)">
<path d="M7.5 15.5C11.6421 15.5 15 12.1421 15 8C15 3.85786 11.6421 0.5 7.5 0.5C3.35786 0.5 0 3.85786 0 8C0 12.1421 3.35786 15.5 7.5 15.5Z" fill="#F0F0F0"/>
<path d="M14.5335 10.6087C14.835 9.79623 15 8.91744 15 8.00004C15 7.08264 14.835 6.20385 14.5335 5.39136H0.466494C0.165029 6.20385 0 7.08264 0 8.00004C0 8.91744 0.165029 9.79623 0.466494 10.6087L7.5 11.2609L14.5335 10.6087Z" fill="#0052B4"/>
<path d="M7.5 15.5C10.7247 15.5 13.4738 13.4646 14.5335 10.6086H0.466492C1.52619 13.4646 4.27526 15.5 7.5 15.5Z" fill="#D80027"/>
</g>
<defs>
<clipPath id="clip0_2_238">
<rect width="15" height="15" fill="white" transform="translate(0 0.5)"/>
</clipPath>
</defs>
</svg>
