<svg width="15" height="15" viewBox="0 0 15 15" fill="none" xmlns="http://www.w3.org/2000/svg">
<path d="M0 7.49999C0 8.4174 0.165029 9.29619 0.466494 10.1087L7.5 10.7609L14.5335 10.1087C14.835 9.29619 15 8.4174 15 7.49999C15 6.58259 14.835 5.7038 14.5335 4.89131L7.5 4.23914L0.466494 4.89131C0.165029 5.7038 0 6.58259 0 7.49999H0Z" fill="#FFDA44"/>
<path d="M14.5335 4.89132C13.4738 2.03534 10.7247 0 7.5 0C4.27526 0 1.52619 2.03534 0.466492 4.89132H14.5335Z" fill="#D80027"/>
<path d="M0.466492 10.1086C1.52619 12.9646 4.27526 15 7.5 15C10.7247 15 13.4738 12.9646 14.5335 10.1086H0.466492Z" fill="#D80027"/>
</svg>
