<svg width="28" height="29" viewBox="0 0 28 29" fill="none" xmlns="http://www.w3.org/2000/svg">
<path fill-rule="evenodd" clip-rule="evenodd" d="M3.03945 20.9046C3.03945 20.9046 4.83835 19.2972 8.43621 19.2972C12.6577 19.2972 16.0453 22.2955 19.6971 22.2955C22.8159 22.2955 25.0938 20.9463 26.3295 19.7053C26.7251 19.3089 27.025 18.6255 27.025 17.9844V3.36508C27.025 2.63314 26.5213 2.03347 25.7837 2.03347C25.2859 2.03347 24.9082 2.3333 24.5304 2.71109C24.021 3.22048 22.5279 4.30624 18.9474 4.30624C15.6799 4.30624 13.0893 1.30793 8.86778 1.30793C4.80198 1.30793 3.03945 2.63314 3.03945 2.63314V1.6077C3.03945 0.780324 2.36777 0.108643 1.5402 0.108643C0.71282 0.108643 0.0411377 0.780324 0.0411377 1.6077V27.3924C0.0411377 28.2198 0.71282 28.8914 1.5402 28.8914C2.36777 28.8914 3.03945 28.2198 3.03945 27.3924V20.9046ZM5.43789 6.10494V15.6994C5.43789 16.3586 4.89795 16.8985 4.23867 16.8985C3.57933 16.8985 3.03945 16.3586 3.03945 15.6994V6.10494C3.03945 5.44567 3.57933 4.90572 4.23867 4.90572C4.89795 4.90572 5.43789 5.44567 5.43789 6.10494Z" fill="#262626"/>
</svg>
