<svg width="29" height="25" viewBox="0 0 29 25" fill="none" xmlns="http://www.w3.org/2000/svg">
<path fill-rule="evenodd" clip-rule="evenodd" d="M22.4322 7.52498H28.25C28.25 2.85382 25.4511 0.125 20.7089 0.125H8.29111C3.54889 0.125 0.75 2.85382 0.75 7.46539V17.5346C0.75 22.1462 3.54889 24.875 8.29111 24.875H20.7089C25.4511 24.875 28.25 22.1462 28.25 17.5346V17.1056H22.4322C19.7322 17.1056 17.5433 14.9716 17.5433 12.3391C17.5433 9.70667 19.7322 7.57264 22.4322 7.57264V7.52498ZM22.4322 9.57457H27.2233C27.7903 9.57457 28.25 10.0227 28.25 10.5755V14.0551C28.2434 14.6052 27.7876 15.0496 27.2233 15.056H22.5422C21.1753 15.074 19.98 14.1615 19.67 12.8634C19.5147 12.0577 19.7327 11.2262 20.2655 10.5918C20.7982 9.95744 21.5913 9.5851 22.4322 9.57457ZM22.64 13.2328H23.0922C23.6727 13.2328 24.1433 12.774 24.1433 12.2081C24.1433 11.6421 23.6727 11.1833 23.0922 11.1833H22.64C22.3624 11.1801 22.095 11.2854 21.8975 11.4757C21.7 11.666 21.5889 11.9254 21.5889 12.1961C21.5889 12.7641 22.0575 13.2263 22.64 13.2328ZM7.26444 7.52498H15.0256C15.6061 7.52498 16.0767 7.06616 16.0767 6.50018C16.0767 5.9342 15.6061 5.47539 15.0256 5.47539H7.26444C6.68867 5.47535 6.22003 5.92694 6.21333 6.48826C6.21329 7.0562 6.68196 7.51845 7.26444 7.52498Z" fill="#262626"/>
</svg>
